Coordinates																																									
version=1																																									
nRows=16																																									
nColumns=42																																									
inDegrees=yes																																									
																																									
"Units are S.I. units (second, meters, Newtons, ...)"																																									
"If the header above contains a line with 'inDegrees', this indicates whether rotational values are in degrees (yes) or radians (no)."																																									
																																									
endheader																																									
time	pelvis_tilt	pelvis_list	pelvis_rotation	pelvis_tx	pelvis_ty	pelvis_tz	hip_flexion_r	hip_adduction_r	hip_rotation_r	knee_angle_r	knee_adduction_r	knee_angle_r_beta	ankle_angle_r	subtalar_angle_r	mtp_angle_r	hip_flexion_l	hip_adduction_l	hip_rotation_l	knee_angle_l	knee_adduction_l	knee_angle_l_beta	ankle_angle_l	subtalar_angle_l	mtp_angle_l	lumbar_extension	lumbar_bending	lumbar_rotation	arm_flex_r	arm_add_r	arm_rot_r	elbow_flex_r	pro_sup_r	wrist_flex_r	wrist_dev_r	arm_flex_l	arm_add_l	arm_rot_l	elbow_flex_l	pro_sup_l	wrist_flex_l	wrist_dev_l
1.34	0	0	0	0	0	0	60.06917091	-3.42946799	-19.67503208	70.93004199	-17.78072173	1.23796277	22.91527389	0	0	56.69954839	1.38165872	-15.81341843	66.41615216	-17.2253314	1.15918053	29.19070639	0	0	-11.08679977	-3.4251271	0.90584817	26.990762	-14.27842036	5.87539871	74.16496395	99.40350586	0	0	37.33113517	-11.62577848	19.29931939	71.09765214	90.907133	0	0
1.35	0	0	0	0	0	0	59.68868355	-3.67898673	-19.66052768	71.72907713	-17.87833918	1.25190857	23.0554741	0	0	56.42720644	1.57344201	-15.72945353	67.43878579	-17.26716305	1.17702886	29.18269264	0	0	-10.78630039	-3.39025683	0.69544067	29.45528284	-14.67494243	6.9288046	76.3091734	99.79623515	0	0	39.86783887	-11.78445859	20.8261729	73.27876619	90.92584326	0	0
1.36	0	0	0	0	0	0	59.06179706	-3.1995383	-19.41619697	72.20496786	-17.99479272	1.26021443	23.19665181	0	0	55.84078986	1.2480301	-15.80190781	68.16323408	-17.31343606	1.18967286	29.19313739	0	0	-10.48430615	-3.39036569	0.90725334	31.82848303	-15.01116834	7.96491621	78.57052853	100.1191769	0	0	42.32684301	-12.14969537	22.36685598	75.76978434	91.00972702	0	0
1.37	0	0	0	0	0	0	58.25698142	-2.93641963	-19.22710499	72.45787077	-17.99310365	1.26462841	23.26927892	0	0	54.97612815	1.09540367	-15.90204234	68.48979375	-17.40945899	1.19537241	29.2254619	0	0	-10.2271103	-3.38392708	1.15605271	34.10050321	-15.49112669	9.00559836	81.07960008	100.4360653	0	0	44.72177993	-12.3061349	23.70634148	78.36754005	91.16066523	0	0
1.38	0	0	0	0	0	0	56.95856426	-2.44098113	-18.91497032	72.43926561	-17.98437769	1.26430369	23.37512639	0	0	53.54497696	0.83276108	-16.14052031	68.42324222	-17.52519804	1.19421086	29.263849	0	0	-10.18953862	-3.44476564	1.54435655	36.198667	-15.81083873	9.71081024	83.70507834	100.8747428	0	0	47.12084957	-12.43557436	25.03538105	80.97929732	91.27235927	0	0
1.39	0	0	0	0	0	0	56.17642565	-2.01459879	-18.72331555	72.16566207	-18.02192229	1.25952841	23.43508546	0	0	52.63391655	0.68401585	-16.19141707	68.11008984	-17.50036029	1.18874532	29.28992894	0	0	-9.33324862	-3.48750701	1.79162931	38.10769753	-16.22256062	10.74799228	86.34780429	101.2432658	0	0	49.13927567	-12.47769361	26.24562061	83.67798759	91.74858491	0	0
1.4	0	0	0	0	0	0	55.0311322	-1.68078162	-18.46907539	71.57777118	-17.9974688	1.24926778	23.48325846	0	0	51.36481192	0.74162006	-16.17440349	67.35782517	-17.5231627	1.17561583	29.31907745	0	0	-8.53276408	-3.44456926	1.93351897	39.76278933	-16.73320219	11.75027311	89.25042674	101.6019136	0	0	50.97066188	-12.47195488	27.38627045	86.4103234	92.28723743	0	0
1.41	0	0	0	0	0	0	52.59935061	-1.06863951	-18.36430415	70.47845258	-17.95328273	1.23008105	23.45370378	0	0	48.86661217	0.4879183	-16.38104916	66.19537842	-17.68326783	1.1553273	29.33046766	0	0	-8.9156611	-3.39322152	2.44456612	41.31036273	-17.26953839	12.18860829	92.44153267	101.853286	0	0	53.29233503	-12.28275937	28.93928486	88.76342547	93.19182822	0	0
1.42	0	0	0	0	0	0	51.2715442	-0.35782904	-18.23277661	69.21053616	-17.82759836	1.20795173	23.259729	0	0	47.47259462	0.09752546	-16.30850771	64.91950664	-17.56512517	1.13305914	29.32340517	0	0	-7.78557076	-3.20737205	2.75239405	42.5229003	-17.63800767	13.08397943	95.32987106	102.1456139	0	0	54.8901235	-12.366755	30.41225805	91.48609715	93.78461987	0	0
1.43	0	0	0	0	0	0	48.66682062	0.10695351	-18.1185516	67.40168891	-17.66105168	1.17638139	22.74467153	0	0	44.7825196	-0.00197661	-16.15843753	62.98065519	-17.38155532	1.0992198	29.28640052	0	0	-7.79587994	-3.05311883	3.02700369	43.64940186	-18.2776549	13.72816732	98.34200239	102.1541096	0	0	56.59110194	-11.94067344	31.76083041	93.56788401	94.83168638	0	0
1.44	0	0	0	0	0	0	46.21660369	0.45030176	-17.99631898	65.43681087	-17.33415226	1.1420878	22.00634216	0	0	42.24309218	-0.08671743	-15.8249212	60.83733122	-17.02089688	1.06181174	29.20800769	0	0	-7.39635747	-2.949489	3.0377499	44.54419696	-18.72646202	14.53453359	101.1198335	102.1547963	0	0	58.10632717	-11.87059548	33.25501985	95.67431242	95.70574567	0	0
1.45	0	0	0	0	0	0	43.72208473	0.92222871	-17.36220238	63.15032915	-16.57335799	1.10218117	20.77482928	0	0	39.59118052	-0.4142491	-15.59184926	58.35160459	-16.41136955	1.01842762	29.05245696	0	0	-6.91717219	-2.72357272	3.33785663	45.279333	-19.36132494	15.48542749	103.8453659	102.3360696	0	0	59.04139758	-11.48395698	34.26801162	97.83867147	96.34127857	0	0
1.46	0	0	0	0	0	0	40.71168073	1.26647274	-16.70966473	60.61431019	-15.57455235	1.05791929	19.28477474	0	0	36.50022034	-0.69256908	-14.87645656	55.6530483	-15.47907067	0.97132893	28.73448546	0	0	-6.68533208	-2.5284136	3.20028233	45.88279399	-19.68364883	16.39077432	105.9310201	102.3384045	0	0	60.1868461	-11.58145308	35.88935583	99.65552421	96.89307948	0	0
1.47	0	0	0	0	0	0	38.00737974	1.33549819	-15.81934796	58.00969686	-14.15882001	1.01246021	17.16225001	0	0	33.7224392	-0.9269663	-13.91856373	52.89798581	-14.237977	0.92324402	27.94680971	0	0	-6.16938915	-2.38301961	2.91396299	46.27405648	-20.07980558	17.49747205	108.036962	102.4537427	0	0	61.14469241	-11.66954326	37.46237679	101.4811571	97.29802302	0	0
1.48	0	0	0	0	0	0	35.36245912	1.32284541	-14.84499209	55.23141454	-12.49017024	0.96397003	14.6197967	0	0	31.11144458	-1.20872244	-12.78854619	50.13258385	-12.83007843	0.87497865	26.05579524	0	0	-5.52579797	-2.22089069	2.51167098	46.46392784	-20.41695277	18.52389365	109.7996712	102.5814888	0	0	61.71114185	-11.68147742	38.76506474	103.1262859	97.67539019	0	0
1.49	0	0	0	0	0	0	32.53916953	1.35647748	-13.81518604	52.37867974	-10.75383166	0.91418042	11.23173993	0	0	28.32593055	-1.73415029	-11.79302011	47.33907022	-11.3349601	0.82622264	23.50382309	0	0	-5.15564823	-2.05530359	2.25167587	46.45094534	-20.87711604	19.47043625	111.3770916	102.7110443	0	0	62.24772455	-11.72408891	40.16561173	104.4286688	97.91133995	0	0
